:SAMPLES-PER-SECOND 30
:FULLY-SPECIFIED
:DEGREES
817
root  -70.0526 34.7981 -3.44865 -15.9152 -72.1094 39.8355
RightUpLeg  -75.5108 -38.8766 9.15559
RightLeg  58.5868 5.7493 9.58837
RightFoot  -8.52689 0.189292 -10.0163
RightToes  5.82063e-011 0 -3.6325e-017
Spine  61.3283 -13.9904 15.7398
Spine1  11.3054 -5.01316 -6.28823
HEad  -58.8931 -9.35166 11.1021
LeftShoulder1  -0.755093 -21.8838 13.0512
LeftArm  -70.2785 -66.3651 14.1719
LeftForeArm  -11.013 -7.10796 7.40432
LeftHand  -0.00387508 7.77413 1.76629
RightShoulder  1.08174 9.74815 -0.396004
RightArm  -58.8807 56.4704 -30.495
RightForeArm  -26.898 -1.69594 -2.02379
RightHand  -0.690608 6.91479 -6.81995
LeftUpLeg  -63.4179 2.75766 -11.027
LeftLeg  45.9427 -2.74964 -2.63848
LeftFoot  -3.36121 -0.0692146 1.27897
LeftToes  1.68253e-010 -3.2327e-011 -2.69673e-012
818
root  -69.9567 35.1839 -3.17688 -15.7814 -73.085 38.7013
RightUpLeg  -72.767 -38.5644 8.51752
RightLeg  56.114 6.43846 9.77491
RightFoot  -7.1358 0.299117 -9.4212
RightToes  5.82063e-011 0 -3.6325e-017
Spine  60.5895 -11.8421 13.3642
Spine1  13.0897 -6.07786 -0.644292
HEad  -58.3943 -6.53078 9.71496
LeftShoulder1  0.998255 -19.1569 4.82562
LeftArm  -72.6709 -68.4442 17.9382
LeftForeArm  -10.0151 -7.07253 6.18979
LeftHand  -0.00137383 8.24621 1.64528
RightShoulder  0.489854 13.2535 -6.81449
RightArm  -56.786 55.688 -22.5505
RightForeArm  -24.8958 -0.0221109 -3.6934
RightHand  -0.883455 7.37573 -8.3723
LeftUpLeg  -61.4494 3.21607 -10.613
LeftLeg  44.1193 -2.47974 -2.18346
LeftFoot  -2.7028 -0.11801 1.78117
LeftToes  1.68253e-010 -3.2327e-011 -2.69673e-012
819
root  -69.8547 35.6013 -2.86721 -15.547 -74.2629 37.592
RightUpLeg  -69.8911 -38.0059 8.01747
RightLeg  53.0876 7.2377 9.82949
RightFoot  -5.69144 0.39008 -8.6919
RightToes  5.82063e-011 0 -3.6325e-017
Spine  63.3578 -14.1392 16.0386
Spine1  5.63099 -5.40127 -7.32771
HEad  -56.7946 -11.4649 11.3216
LeftShoulder1  -0.190763 -19.2753 9.02438
LeftArm  -56.955 -71.9991 -3.69496
LeftForeArm  -10.476 -7.24098 5.80456
LeftHand  0.0258927 8.26063 2.72857
RightShoulder  0.0436298 9.6973 -4.36522
RightArm  -46.1762 55.8528 -14.9929
RightForeArm  -27.4772 1.85444 -1.1022
RightHand  -0.867926 7.57079 -8.13298
LeftUpLeg  -59.4419 3.60809 -10.0246
LeftLeg  42.039 -2.15341 -1.69716
LeftFoot  -1.97173 -0.170293 2.21666
LeftToes  1.68253e-010 -3.2327e-011 -2.69673e-012
820
root  -69.7328 36.1391 -2.55201 -18.7028 -76.1378 38.5897
RightUpLeg  -64.8623 -36.8144 6.15811
RightLeg  49.349 8.15797 9.70905
RightFoot  -3.62535 0.534615 -8.19962
RightToes  5.82063e-011 0 -3.6325e-017
Spine  74.4959 -22.3564 24.7961
Spine1  -16.897 -2.74109 -29.8517
HEad  -49.4896 -24.9141 20.9559
LeftShoulder1  -4.72244 -23.4731 29.2436
LeftArm  -13.5702 -70.9208 -63.0298
LeftForeArm  -10.3159 -7.06689 6.15579
LeftHand  0.0173227 7.31887 3.0943
RightShoulder  -0.69975 -8.54081 3.9814
RightArm  -20.7319 59.5162 -0.909261
RightForeArm  -38.6239 2.55431 7.34804
RightHand  -1.01323 9.67711 -8.1625
LeftUpLeg  -55.7263 5.14239 -9.73991
LeftLeg  39.4049 -1.79166 -1.21317
LeftFoot  -1.21362 -0.244679 2.84932
LeftToes  1.68253e-010 -3.2327e-011 -2.69673e-012
821
root  -69.6321 36.5646 -2.17371 -20.9752 -77.8123 39.1166
RightUpLeg  -60.7436 -35.7276 4.82516
RightLeg  46.033 8.88936 9.42148
RightFoot  -1.55241 0.698963 -8.27897
RightToes  5.82063e-011 0 -3.6325e-017
Spine  65.155 -15.6998 17.4835
Spine1  1.44916 -3.02158 -13.6478
HEad  -54.8979 -13.1853 16.4567
LeftShoulder1  -0.360528 -13.3468 12.3489
LeftArm  -19.9367 -74.9702 -48.2496
LeftForeArm  -6.8042 -6.32202 3.52464
LeftHand  0.01329 7.13458 3.82023
RightShoulder  -0.0710977 1.76743 -15.3579
RightArm  -27.8482 59.7562 17.5174
RightForeArm  -28.0561 0.638096 -0.186229
RightHand  -1.06594 9.4138 -8.68831
LeftUpLeg  -52.7217 5.88994 -9.09553
LeftLeg  37.3606 -1.07675 -0.514495
LeftFoot  -0.753113 -0.262068 2.87601
LeftToes  1.68253e-010 -3.2327e-011 -2.69673e-012
822
root  -69.5665 36.9577 -1.73404 -22.7059 -79.5719 39.1951
RightUpLeg  -56.3903 -34.4082 3.39427
RightLeg  42.3714 9.65122 9.01595
RightFoot  -0.820075 0.528567 -5.78798
RightToes  5.82063e-011 0 -3.6325e-017
Spine  62.1583 -8.49627 10.012
Spine1  6.66754 -4.68223 1.83947
HEad  -56.7351 -7.18585 10.1538
LeftShoulder1  1.95897 -10.2291 -6.41163
LeftArm  -20.2896 -73.321 -39.4021
LeftForeArm  -1.11764 -6.08202 -0.791006
LeftHand  0.0153305 6.17829 6.39009
RightShoulder  -0.00597539 6.47257 -9.40228
RightArm  -28.368 66.5399 12.711
RightForeArm  -18.6885 1.28654 1.53551
RightHand  -0.775802 7.90343 -7.13957
LeftUpLeg  -49.9118 6.998 -8.53802
LeftLeg  35.5571 -0.967811 -0.39195
LeftFoot  -0.398709 -0.304329 3.20264
LeftToes  1.68253e-010 -3.2327e-011 -2.69673e-012
823
root  -69.5038 37.3806 -1.2914 -30.547 -81.6925 45.1165
RightUpLeg  -51.4973 -31.8664 1.20032
RightLeg  38.2531 9.9916 8.09282
RightFoot  0.911116 0.490966 -4.5236
RightToes  5.82063e-011 0 -3.6325e-017
Spine  61.0524 -6.65671 7.92295
Spine1  7.27442 -4.39486 3.47455
HEad  -60.4891 -5.58857 6.88477
LeftShoulder1  2.13852 -7.3708 -12.4372
LeftArm  -8.46062 -71.4331 -49.4794
LeftForeArm  6.39586 -5.47425 -3.67188
LeftHand  0.00622862 6.55915 3.65505
RightShoulder  0.111634 1.98674 -7.51352
RightArm  -13.9956 71.106 27.318
RightForeArm  -15.4023 0.617044 4.28725
RightHand  -0.800653 7.69534 -7.44153
LeftUpLeg  -46.5578 8.82329 -8.41537
LeftLeg  33.4257 -0.359244 0.0976566
LeftFoot  -0.100535 -0.347815 3.53944
LeftToes  1.68253e-010 -3.2327e-011 -2.69673e-012
824
root  -69.448 37.8179 -0.851418 -46.4387 -83.8466 59.0925
RightUpLeg  -46.3798 -28.0659 -1.46442
RightLeg  33.5693 9.81312 6.69491
RightFoot  2.73438 0.37268 -2.84572
RightToes  5.82063e-011 0 -3.6325e-017
Spine  59.0315 -5.22991 6.14561
Spine1  8.7507 -3.22802 1.57158
HEad  -62.3574 -5.27148 7.22929
LeftShoulder1  2.10365 -6.9064 -13.1984
LeftArm  -3.16156 -66.5065 -55.2495
LeftForeArm  13.5812 -5.47813 -5.01421
LeftHand  -0.0241223 5.38173 4.3814
RightShoulder  0.236004 2.04517 -4.80994
RightArm  -2.69457 67.562 41.4488
RightForeArm  -11.3323 1.38082 4.68972
RightHand  -0.908325 8.03152 -8.20329
LeftUpLeg  -42.9307 11.4036 -8.68798
LeftLeg  30.7696 0.0342362 0.362768
LeftFoot  0.338262 -0.429099 4.17016
LeftToes  1.68253e-010 -3.2327e-011 -2.69673e-012
825
root  -69.3988 38.1387 -0.285692 -64.9017 -85.1147 76.4098
RightUpLeg  -42.7699 -25.0247 -3.13021
RightLeg  29.3077 9.48138 5.49485
RightFoot  5.07138 0.328615 -2.04757
RightToes  5.82063e-011 0 -3.6325e-017
Spine  56.696 -4.51016 5.55112
Spine1  8.21089 -2.2855 0.0348609
HEad  -61.847 -7.69016 8.95223
LeftShoulder1  2.23691 -7.10542 -14.193
LeftArm  -0.289124 -60.0062 -58.2399
LeftForeArm  19.2694 -5.00397 -6.27882
LeftHand  -0.0397916 4.86905 3.78173
RightShoulder  0.358364 1.92153 -2.12805
RightArm  5.65853 62.272 51.0527
RightForeArm  -9.14279 1.70939 5.66843
RightHand  -0.882415 7.63809 -8.18674
LeftUpLeg  -40.4941 12.7281 -8.73377
LeftLeg  28.7129 0.783169 0.813111
LeftFoot  0.706738 -0.535134 5.03001
LeftToes  1.68253e-010 -3.2327e-011 -2.69673e-012
826
root  -69.3257 38.4456 0.247945 -100.376 -86.0196 109.819
RightUpLeg  -37.9631 -21.1361 -4.89999
RightLeg  24.4445 9.05522 4.22053
RightFoot  6.76611 0.0532656 -0.0369996
RightToes  5.82063e-011 0 -3.6325e-017
Spine  54.9028 -3.12137 4.31755
Spine1  8.41441 -1.1263 -0.702059
HEad  -62.1258 -8.61839 10.6814
LeftShoulder1  2.25307 -6.56423 -15.587
LeftArm  0.985781 -53.5748 -59.6719
LeftForeArm  23.3802 -4.82609 -7.29518
LeftHand  -0.0491887 4.59702 3.85413
RightShoulder  0.460218 2.12089 -0.39038
RightArm  8.58428 55.9398 56.2334
RightForeArm  -7.5433 2.57744 5.8582
RightHand  -0.767703 6.81135 -7.62513
LeftUpLeg  -37.3421 15.1675 -8.38837
LeftLeg  27.0144 1.05919 0.92033
LeftFoot  0.669081 -0.548141 5.16925
LeftToes  1.68253e-010 -3.2327e-011 -2.69673e-012
827
root  -69.2631 38.6864 0.885466 -128.365 -86.0331 136.583
RightUpLeg  -34.2553 -19.1884 -5.56072
RightLeg  19.5584 8.98948 3.47187
RightFoot  8.78191 -0.225147 1.58563
RightToes  5.82063e-011 0 -3.6325e-017
Spine  52.5249 -3.24044 4.75155
Spine1  7.76007 -0.529114 -2.54406
HEad  -61.4967 -9.77224 11.7531
LeftShoulder1  2.31684 -6.4992 -16.4509
LeftArm  1.05499 -46.6155 -59.1993
LeftForeArm  23.1475 -4.39825 -8.14476
LeftHand  -0.0699418 4.13698 4.84473
RightShoulder  0.633272 1.81167 4.50697
RightArm  10.0707 49.4996 58.811
RightForeArm  -7.62154 3.4588 6.1763
RightHand  -0.9661 7.38338 -9.10836
LeftUpLeg  -35.1062 15.6892 -7.63221
LeftLeg  25.4475 2.02317 1.39742
LeftFoot  0.713588 -0.553531 5.19273
LeftToes  1.68253e-010 -3.2327e-011 -2.69673e-012
828
root  -69.2047 38.9681 1.44545 -153.068 -84.9435 160.575
RightUpLeg  -30.2253 -15.8 -6.83921
RightLeg  13.2435 6.90694 2.67166
RightFoot  9.87173 -0.770979 4.53463
RightToes  5.82063e-011 0 -3.6325e-017
Spine  49.3802 -2.82851 4.46369
Spine1  8.01574 0.26925 -3.87641
HEad  -61.6197 -10.1945 12.6124
LeftShoulder1  2.26238 -5.89939 -17.4317
LeftArm  0.377521 -39.7802 -58.4565
LeftForeArm  22.3018 -4.72116 -8.51702
LeftHand  -0.0325293 5.11705 4.60725
RightShoulder  0.949876 0.486704 16.9061
RightArm  11.0051 45.3841 55.5443
RightForeArm  -3.06317 4.46359 6.94522
RightHand  -1.02235 7.17216 -9.75575
LeftUpLeg  -33.3818 19.3459 -8.0511
LeftLeg  23.1465 0.510382 0.579156
LeftFoot  1.29913 -0.702458 6.2648
LeftToes  1.68253e-010 -3.2327e-011 -2.69673e-012
829
root  -69.1355 39.1787 1.9482 -167.378 -83.6483 173.734
RightUpLeg  -25.9826 -12.5693 -7.96373
RightLeg  7.98953 2.45806 1.87192
RightFoot  8.05358 -1.3241 8.03984
RightToes  5.82063e-011 0 -3.6325e-017
Spine  46.7714 -2.20984 4.16604
Spine1  7.85588 0.81571 -3.76307
HEad  -60.6885 -10.9969 12.3126
LeftShoulder1  2.24689 -5.22186 -19.2534
LeftArm  0.209691 -33.3129 -57.0693
LeftForeArm  19.662 -4.61776 -9.14216
LeftHand  -0.00328277 6.53054 3.69293
RightShoulder  0.887249 0.0121867 18.8906
RightArm  11.3995 40.7571 54.7232
RightForeArm  -3.08105 4.40841 7.25829
RightHand  -0.755444 5.63362 -8.23376
LeftUpLeg  -31.5608 22.6792 -8.0408
LeftLeg  21.5048 -0.956773 -0.0718675
LeftFoot  1.68973 -0.845904 7.30706
LeftToes  1.68253e-010 -3.2327e-011 -2.69673e-012
830
root  -69.0409 39.3705 2.39715 -176.802 -82.0593 -177.973
RightUpLeg  -23.2305 -11.7723 -7.68741
RightLeg  6.45374 -3.60678 1.09266
RightFoot  6.09813 -1.20149 8.08706
RightToes  5.82063e-011 0 -3.6325e-017
Spine  44.7371 -1.79076 4.27283
Spine1  7.0787 1.29271 -4.11032
HEad  -59.2019 -11.6726 11.9496
LeftShoulder1  2.22694 -4.6731 -20.8276
LeftArm  -1.23352 -26.5747 -55.2295
LeftForeArm  18.9611 -4.86329 -9.02757
LeftHand  0.0081621 8.37172 1.95671
RightShoulder  0.74157 -0.84085 21.7257
RightArm  11.3464 36.2599 53.7774
RightForeArm  -1.37987 4.34717 7.30032
RightHand  -0.596687 5.05454 -6.92416
LeftUpLeg  -29.6159 24.1983 -7.27557
LeftLeg  19.9413 -0.686958 0.016132
LeftFoot  2.17743 -0.935501 7.76912
LeftToes  1.68253e-010 -3.2327e-011 -2.69673e-012
831
root  -68.9419 39.4927 2.84739 -179.019 -80.7685 -176.938
RightUpLeg  -22.2185 -15.2923 -6.82789
RightLeg  10.7805 -6.18319 0.279211
RightFoot  4.12942 -1.00382 7.58798
RightToes  5.82063e-011 0 -3.6325e-017
Spine  42.3073 -1.83344 4.44388
Spine1  6.9049 1.44564 -5.10546
HEad  -57.3893 -12.2234 11.9297
LeftShoulder1  2.20363 -4.34235 -21.7529
LeftArm  -3.70481 -20.0984 -53.6747
LeftForeArm  19.0411 -5.36988 -8.19216
LeftHand  0.0388433 7.81098 3.63353
RightShoulder  0.581287 -1.55286 23.9069
RightArm  11.4338 32.2491 52.9195
RightForeArm  -1.30437 4.13697 7.42729
RightHand  -0.720158 5.88402 -7.73044
LeftUpLeg  -27.3821 23.7998 -6.41716
LeftLeg  18.4716 1.29639 0.000570428
LeftFoot  2.61294 -1.01594 8.15623
LeftToes  1.68253e-010 -3.2327e-011 -2.69673e-012
